<svg width="20" height="20" viewBox="0 0 20 20" fill="none" xmlns="http://www.w3.org/2000/svg">
<path d="M10.0002 4.58332C9.5399 4.58332 9.16682 4.95641 9.16682 5.41666C9.16682 5.87691 9.5399 6.25 10.0002 6.25C10.4604 6.25 10.8335 5.87691 10.8335 5.41666C10.8335 4.95641 10.4604 4.58332 10.0002 4.58332Z" fill="black"/>
<path d="M9.99984 1.66699C5.39746 1.66699 1.6665 5.39795 1.6665 10.0003C1.6665 14.6027 5.39746 18.3337 9.99984 18.3337C14.6022 18.3337 18.3332 14.6027 18.3332 10.0003C18.3332 5.39795 14.6022 1.66699 9.99984 1.66699ZM2.49984 10.0003C2.49984 5.8582 5.85771 2.50033 9.99984 2.50033C14.142 2.50033 17.4998 5.8582 17.4998 10.0003C17.4998 14.1425 14.142 17.5003 9.99984 17.5003C5.85771 17.5003 2.49984 14.1425 2.49984 10.0003Z" fill="black"/>
<path d="M10 8V14" stroke="black" stroke-linecap="round"/>
</svg>
