<svg width="20" height="20" viewBox="0 0 20 20" fill="none" xmlns="http://www.w3.org/2000/svg">
<path d="M10.0002 5.41633C8.84832 5.41633 7.91682 6.34783 7.91682 7.49967C7.91682 7.72978 7.73027 7.91633 7.50016 7.91633C7.27004 7.91633 7.0835 7.72978 7.0835 7.49967C7.0835 5.8876 8.38809 4.58301 10.0002 4.58301C11.6122 4.58301 12.9168 5.88762 12.9168 7.49967C12.9168 8.97025 11.8312 10.185 10.4168 10.3868V12.4997C10.4168 12.7297 10.2302 12.9163 10.0002 12.9163C9.77008 12.9163 9.5835 12.7297 9.5835 12.4997V9.99967C9.5835 9.76959 9.77008 9.58301 10.0002 9.58301C11.152 9.58301 12.0835 8.6515 12.0835 7.49967C12.0835 6.34783 11.152 5.41633 10.0002 5.41633ZM10.0002 15.308C10.4604 15.308 10.8335 14.9349 10.8335 14.4747C10.8335 14.0144 10.4604 13.6413 10.0002 13.6413C9.5399 13.6413 9.16682 14.0144 9.16682 14.4747C9.16682 14.9349 9.5399 15.308 10.0002 15.308Z" fill="black"/>
<path d="M9.99984 1.66699C5.39746 1.66699 1.6665 5.39795 1.6665 10.0003C1.6665 14.6027 5.39746 18.3337 9.99984 18.3337C14.6022 18.3337 18.3332 14.6027 18.3332 10.0003C18.3332 5.39795 14.6022 1.66699 9.99984 1.66699ZM2.49984 10.0003C2.49984 5.8582 5.85771 2.50033 9.99984 2.50033C14.142 2.50033 17.4998 5.8582 17.4998 10.0003C17.4998 14.1425 14.142 17.5003 9.99984 17.5003C5.85771 17.5003 2.49984 14.1425 2.49984 10.0003Z" fill="black"/>
</svg>
