<svg width="20" height="20" viewBox="0 0 20 20" fill="none" xmlns="http://www.w3.org/2000/svg">
<path d="M9.99989 6.40663C9.28911 6.40663 8.5943 6.6174 8.00331 7.01229C7.41232 7.40717 6.9517 7.96844 6.6797 8.62511C6.40769 9.28179 6.33652 10.0044 6.47519 10.7015C6.61386 11.3986 6.95613 12.039 7.45872 12.5415C7.96132 13.0441 8.60166 13.3864 9.29878 13.5251C9.9959 13.6637 10.7185 13.5926 11.3752 13.3206C12.0318 13.0486 12.5931 12.588 12.988 11.997C13.3829 11.406 13.5936 10.7112 13.5936 10.0004C13.5924 9.04764 13.2134 8.13428 12.5397 7.46059C11.866 6.7869 10.9526 6.40787 9.99989 6.40663ZM9.99989 12.6566C9.47453 12.6566 8.96097 12.5008 8.52415 12.209C8.08734 11.9171 7.74688 11.5023 7.54583 11.0169C7.34479 10.5315 7.29218 9.99744 7.39468 9.48217C7.49717 8.96691 7.75015 8.49361 8.12163 8.12213C8.49312 7.75065 8.96642 7.49766 9.48168 7.39517C9.99694 7.29268 10.531 7.34528 11.0164 7.54633C11.5018 7.74737 11.9166 8.08783 12.2085 8.52465C12.5004 8.96147 12.6561 9.47503 12.6561 10.0004C12.6561 10.7049 12.3763 11.3805 11.8781 11.8786C11.38 12.3768 10.7044 12.6566 9.99989 12.6566ZM16.7186 10.2223C16.7233 10.0746 16.7233 9.92616 16.7186 9.77851L17.9163 8.28163C17.9621 8.22433 17.9938 8.15709 18.0088 8.08531C18.0239 8.01353 18.0219 7.93922 18.003 7.86835C17.8156 7.16216 17.535 6.48406 17.1686 5.85194C17.1322 5.78779 17.0812 5.73313 17.0197 5.6924C16.9582 5.65168 16.888 5.62604 16.8147 5.61757L14.9046 5.40585C14.8041 5.29804 14.6999 5.19387 14.5921 5.09335L14.3796 3.18241C14.3711 3.10914 14.3455 3.03891 14.3047 2.97741C14.264 2.91592 14.2094 2.8649 14.1452 2.82851C13.5139 2.46316 12.8369 2.18312 12.1319 1.9957C12.0609 1.97713 11.9865 1.97552 11.9147 1.99099C11.8429 2.00646 11.7757 2.03858 11.7186 2.08476L10.2186 3.28554C10.071 3.28085 9.92254 3.28085 9.77489 3.28554L8.28114 2.08398C8.22384 2.0382 8.15659 2.0065 8.08482 1.99144C8.01304 1.97638 7.93872 1.97837 7.86786 1.99726C7.16166 2.18464 6.48357 2.46523 5.85145 2.83163C5.78729 2.86802 5.73263 2.91904 5.69191 2.98054C5.65118 3.04203 5.62554 3.11227 5.61707 3.18554L5.40848 5.09569C5.30067 5.19674 5.1965 5.3009 5.09598 5.40819L3.18426 5.62538C3.11099 5.63385 3.04075 5.65949 2.97926 5.70021C2.91776 5.74094 2.86675 5.7956 2.83036 5.85976C2.46501 6.4911 2.18497 7.16809 1.99754 7.87304C1.97943 7.94321 1.97783 8.01663 1.99288 8.08753C2.00792 8.15842 2.0392 8.22487 2.08426 8.28163L3.28504 9.78163C3.28036 9.92929 3.28036 10.0777 3.28504 10.2254L2.08348 11.723C2.0377 11.7803 2.00601 11.8476 1.99095 11.9194C1.97589 11.9911 1.97788 12.0654 1.99676 12.1363C2.18447 12.8412 2.46506 13.5179 2.83114 14.1488C2.86753 14.213 2.91855 14.2676 2.98004 14.3084C3.04154 14.3491 3.11177 14.3747 3.18504 14.3832L5.0952 14.5949C5.19624 14.7027 5.30041 14.8069 5.4077 14.9074L5.62489 16.816C5.63336 16.8893 5.65899 16.9595 5.69972 17.021C5.74044 17.0825 5.79511 17.1335 5.85926 17.1699C6.49061 17.5353 7.1676 17.8153 7.87254 18.0027C7.94341 18.0216 8.01772 18.0236 8.0895 18.0085C8.16128 17.9935 8.22852 17.9618 8.28582 17.916L9.77801 16.7191C9.92567 16.7238 10.0741 16.7238 10.2218 16.7191L11.7225 17.9207C11.8057 17.9871 11.9091 18.0232 12.0155 18.023C12.0561 18.0229 12.0965 18.0176 12.1358 18.0074C12.8407 17.8197 13.5174 17.5391 14.1483 17.173C14.2125 17.1366 14.2671 17.0856 14.3079 17.0241C14.3486 16.9626 14.3742 16.8924 14.3827 16.8191L14.5944 14.909C14.7022 14.8085 14.8064 14.7043 14.9069 14.5965L16.8179 14.384C16.8911 14.3755 16.9614 14.3499 17.0229 14.3091C17.0844 14.2684 17.1354 14.2138 17.1718 14.1496C17.5372 13.5183 17.8173 12.8413 18.0046 12.1363C18.0235 12.0654 18.0255 11.9911 18.0104 11.9194C17.9953 11.8476 17.9636 11.7803 17.9179 11.723L16.7186 10.2223ZM16.4764 13.4746L14.6296 13.6801C14.5142 13.6934 14.4078 13.7491 14.3311 13.8363C14.1767 14.0103 14.0121 14.1749 13.8382 14.3293C13.7509 14.406 13.6952 14.5123 13.6819 14.6277L13.4764 16.4738C13.044 16.7044 12.5897 16.8913 12.1202 17.0316L10.6694 15.8707C10.5862 15.8043 10.4829 15.7682 10.3764 15.7683H10.3483C10.1162 15.7816 9.88355 15.7816 9.65145 15.7683C9.53553 15.7613 9.42111 15.7975 9.33036 15.8699L7.88036 17.0316C7.41126 16.8905 6.95745 16.7028 6.52567 16.4715L6.3202 14.6262C6.3069 14.5108 6.25121 14.4044 6.16395 14.3277C5.99001 14.1733 5.82539 14.0087 5.67098 13.8348C5.5943 13.7475 5.48795 13.6918 5.37254 13.6785L3.52645 13.473C3.2961 13.0419 3.10924 12.5889 2.96864 12.1207L4.12958 10.6699C4.20204 10.5792 4.23823 10.4647 4.23114 10.3488C4.21786 10.1167 4.21786 9.88405 4.23114 9.65194C4.23823 9.53603 4.20204 9.42161 4.12958 9.33085L2.96864 7.88085C3.10977 7.41176 3.29742 6.95794 3.52879 6.52616L5.37411 6.32069C5.48951 6.30739 5.59586 6.25171 5.67254 6.16444C5.82696 5.9905 5.99157 5.82589 6.16551 5.67148C6.25278 5.59479 6.30846 5.48844 6.32176 5.37304L6.52723 3.52694C6.95839 3.29659 7.4114 3.10973 7.87957 2.96913L9.33036 4.13007C9.42111 4.20253 9.53553 4.23872 9.65145 4.23163C9.88355 4.21835 10.1162 4.21835 10.3483 4.23163C10.4642 4.23872 10.5787 4.20253 10.6694 4.13007L12.1194 2.96913C12.5885 3.11027 13.0423 3.29792 13.4741 3.52929L13.6796 5.37616C13.6929 5.49157 13.7486 5.59792 13.8358 5.6746C14.0098 5.82901 14.1744 5.99363 14.3288 6.16757C14.4055 6.25483 14.5118 6.31052 14.6272 6.32382L16.4733 6.52929C16.7036 6.95994 16.8904 7.41243 17.0311 7.88007L15.8702 9.33085C15.7977 9.42161 15.7615 9.53603 15.7686 9.65194C15.7819 9.88405 15.7819 10.1167 15.7686 10.3488C15.7615 10.4647 15.7977 10.5792 15.8702 10.6699L17.0311 12.1199C16.8905 12.5889 16.7034 13.0428 16.4725 13.4746H16.4764Z" fill="black"/>
</svg>
