<svg width="20" height="20" viewBox="0 0 20 20" fill="none" xmlns="http://www.w3.org/2000/svg">
<path fill-rule="evenodd" clip-rule="evenodd" d="M15.7142 3.33301C16.7662 3.33301 17.619 4.1858 17.619 5.23777V14.7616C17.619 15.8136 16.7662 16.6663 15.7142 16.6663L12.858 16.6654L10.6733 18.85C10.33 19.1934 9.7898 19.2198 9.41619 18.9293L9.32647 18.85L7.14181 16.6654L4.28562 16.6663C3.23365 16.6663 2.38086 15.8136 2.38086 14.7616V5.23777C2.38086 4.1858 3.23365 3.33301 4.28562 3.33301H15.7142Z" stroke="black" stroke-linecap="round" stroke-linejoin="round"/>
<path d="M14.7616 8.09473H9.04736" stroke="black" stroke-linecap="round" stroke-linejoin="round"/>
<path fill-rule="evenodd" clip-rule="evenodd" d="M6.18907 9.04734C6.66526 9.04734 7.14145 8.57115 7.14145 8.09496C7.14145 7.61877 6.66526 7.14258 6.18907 7.14258C5.71288 7.14258 5.23779 7.61877 5.23779 8.09496C5.23779 8.57115 5.71288 9.04734 6.18907 9.04734ZM6.18907 12.8569C6.66526 12.8569 7.14145 12.3807 7.14145 11.9045C7.14145 11.4283 6.66526 10.9521 6.18907 10.9521C5.71288 10.9521 5.23779 11.4283 5.23779 11.9045C5.23779 12.3807 5.71288 12.8569 6.18907 12.8569Z" fill="black"/>
<path d="M14.7616 11.9043H9.04736" stroke="black" stroke-linecap="round" stroke-linejoin="round"/>
</svg>
