<svg width="50" height="30" viewBox="0 0 50 30" fill="none" xmlns="http://www.w3.org/2000/svg">
<g clip-path="url(#clip0_160_7563)">
<mask id="mask0_160_7563" style="mask-type:alpha" maskUnits="userSpaceOnUse" x="0" y="0" width="50" height="30">
<rect width="50" height="30" rx="8" fill="#D9D9D9"/>
</mask>
<g mask="url(#mask0_160_7563)">
<path d="M0 0H60V30H0V0Z" fill="#CE1720"/>
<mask id="mask1_160_7563" style="mask-type:luminance" maskUnits="userSpaceOnUse" x="0" y="0" width="8" height="30">
<path d="M0.317383 0H6.98405V20.2667H7.25072V29.7333L6.98405 30H0.317383V0Z" fill="white"/>
</mask>
<g mask="url(#mask1_160_7563)">
<path d="M1.51745 0V0.466667H1.21745V0.933333H0.850781V1.46667H0.584115V1.9H0.0507812V0.8H0.584115V0.2H0.0507812V0H1.51745ZM2.38411 2.56667V3.06667H2.11745V3.46667H1.85078V3.06667H1.58411V2.56667H1.31745V1.9H1.58411V1.4H1.85078V1H2.11745V1.4H2.38411V1.9H2.65078V2.56667H2.38411ZM1.81745 2.53333H2.15078V1.93333H1.81745V2.53333ZM0.950781 6.1H1.21745V5.5H0.950781V6.1ZM2.75078 6.1H3.01745V5.5H2.75078V6.1ZM0.0507812 10.1667H0.517448V10.6H0.717448V11.1333H1.01745V11.6333H1.41745V11.1333H1.71745V10.6H1.98411V10.1667H1.58411V9.66667H2.28411V10H2.71745V10.5667H3.08411V11.2H2.81745V11.6667H2.58411V12.1H2.38411V12.5667H2.08411V12.9667H1.85078V13.3333H1.55078V13.8H1.11745V13.3H0.817448V12.8333H0.584115V12.5333H0.0507812V11.7667H0.584115V11.1H0.0507812V10.1667Z" fill="white"/>
<path d="M5.78431 0V0.466667H6.08431V0.933333H6.45098V1.46667H6.71764V1.9H7.25098V0.8H6.71764V0.2H7.25098V0H5.78431ZM4.91764 2.56667V3.06667H5.18431V3.46667H5.45098V3.06667H5.71764V2.56667H5.98431V1.9H5.71764V1.4H5.45098V1H5.18431V1.4H4.91764V1.9H4.65098V2.56667H4.91764ZM5.48431 2.53333H5.15098V1.93333H5.48431V2.53333ZM6.35098 6.1H6.08431V5.5H6.35098V6.1ZM4.55098 6.1H4.28431V5.5H4.55098V6.1ZM7.25098 10.1667H6.78431V10.6H6.58431V11.1333H6.28431V11.6333H5.88431V11.1333H5.58431V10.6H5.31764V10.1667H5.71764V9.66667H5.01764V10H4.58431V10.5667H4.21764V11.2H4.48431V11.6667H4.71764V12.1H4.91764V12.5667H5.21764V12.9667H5.45098V13.3333H5.75098V13.8H6.18431V13.3H6.48431V12.8333H6.71764V12.5333H7.25098V11.7667H6.71764V11.1H7.25098V10.1667Z" fill="white"/>
<path d="M3.51745 0V1.06667H3.78411V0H4.85078V0.466667H4.58412V0.933333H4.18411V1.46667H3.91745V1.9H3.38411V1.46667H3.11745V0.933333H2.71745V0.466667H2.45078V0H3.51745ZM3.45078 9.13333V8.76667H3.25078V8.33333H3.01745V7.86667H2.75078V7.4H2.48411V7.06667H2.18411V6.6H1.78411V7.06667H1.48411V7.4H1.25078V7.86667H0.984115V8.33333H0.784115V8.76667H0.584115V9.33333H0.0507812V7.86667H0.584115V7.2H0.0507812V6.1H0.584115V6.56667H0.917448V7.03333H1.25078V6.56667H1.58411V6.1H1.85078V5.5H1.58411V5.03333H1.25078V4.56667H0.917448V5.03333H0.584115V5.5H0.0507812V4.13333H0.584115V3.5H0.0507812V2.56667H0.584115V3H0.850781V3.53333H1.21745V3.96667H1.51745V4.46667H1.75078V4.86667H2.21745V4.46667H2.45078V3.96667H2.75078V3.53333H3.11745V3H3.38411V2.56667H3.91745V3H4.18411V3.53333H4.55078V3.96667H4.85078V4.46667H5.08412V4.86667H5.55078V4.46667H5.78411V3.96667H6.08412V3.53333H6.45078V3H6.71745V2.56667H7.25078V3.5H6.71745V4.13333H7.25078V5.5H6.71745V5.03333H6.38411V4.56667H6.05078V5.03333H5.71745V5.5H5.45078V6.1H5.71745V6.56667H6.05078V7.03333H6.38411V6.56667H6.71745V6.1H7.25078V7.2H6.71745V7.86667H7.25078V9.33333H6.71745V8.76667H6.51745V8.33333H6.31745V7.86667H6.05078V7.4H5.81745V7.06667H5.51745V6.6H5.11745V7.06667H4.81745V7.4H4.55078V7.86667H4.28411V8.33333H4.05078V8.76667H3.85078V9.13333H3.45078ZM3.51745 3.56667V4.46667H3.78411V3.56667H3.51745ZM3.38411 5.5V5.03333H3.05078V4.56667H2.71745V5.03333H2.38411V5.5H2.11745V6.1H2.38411V6.56667H2.71745V7.03333H3.05078V6.56667H3.38411V6.1H3.91745V6.56667H4.25078V7.03333H4.58412V6.56667H4.91745V6.1H5.18411V5.5H4.91745V5.03333H4.58412V4.56667H4.25078V5.03333H3.91745V5.5H3.38411ZM3.51745 7.03333V7.93333H3.78411V7.03333H3.51745Z" fill="white"/>
<path d="M1.51745 30V29.5333H1.21745V29.0667H0.850781V28.5333H0.584115V28.1H0.0507812V29.2H0.584115V29.8H0.0507812V30H1.51745ZM2.38411 27.4333V26.9333H2.11745V26.5333H1.85078V26.9333H1.58411V27.4333H1.31745V28.1H1.58411V28.6H1.85078V29H2.11745V28.6H2.38411V28.1H2.65078V27.4333H2.38411ZM1.81745 27.4667H2.15078V28.0667H1.81745V27.4667ZM0.950781 23.9H1.21745V24.5H0.950781V23.9ZM2.75078 23.9H3.01745V24.5H2.75078V23.9ZM0.0507812 19.8333H0.517448V19.4H0.717448V18.8667H1.01745V18.3667H1.41745V18.8667H1.71745V19.4H1.98411V19.8333H1.58411V20.3333H2.28411V20H2.71745V19.4333H3.08411V18.8H2.81745V18.3333H2.58411V17.9H2.38411V17.4333H2.08411V17.0333H1.85078V16.6667H1.55078V16.2H1.11745V16.7H0.817448V17.1667H0.584115V17.4667H0.0507812V18.2333H0.584115V18.9H0.0507812V19.8333Z" fill="white"/>
<path d="M5.78431 30V29.5333H6.08431V29.0667H6.45098V28.5333H6.71764V28.1H7.25098V29.2H6.71764V29.8H7.25098V30H5.78431ZM4.91764 27.4333V26.9333H5.18431V26.5333H5.45098V26.9333H5.71764V27.4333H5.98431V28.1H5.71764V28.6H5.45098V29H5.18431V28.6H4.91764V28.1H4.65098V27.4333H4.91764ZM5.48431 27.4667H5.15098V28.0667H5.48431V27.4667ZM6.35098 23.9H6.08431V24.5H6.35098V23.9ZM4.55098 23.9H4.28431V24.5H4.55098V23.9ZM7.25098 19.8333H6.78431V19.4H6.58431V18.8667H6.28431V18.3667H5.88431V18.8667H5.58431V19.4H5.31764V19.8333H5.71764V20.3333H5.01764V20H4.58431V19.4333H4.21764V18.8H4.48431V18.3333H4.71764V17.9H4.91764V17.4333H5.21764V17.0333H5.45098V16.6667H5.75098V16.2H6.18431V16.7H6.48431V17.1667H6.71764V17.4667H7.25098V18.2333H6.71764V18.9H7.25098V19.8333Z" fill="white"/>
<path d="M3.51745 30V28.9333H3.78411V30H4.85078V29.5333H4.58412V29.0667H4.18411V28.5333H3.91745V28.1H3.38411V28.5333H3.11745V29.0667H2.71745V29.5333H2.45078V30H3.51745ZM3.45078 20.8667V21.2333H3.25078V21.6667H3.01745V22.1333H2.75078V22.6H2.48411V22.9333H2.18411V23.4H1.78411V22.9333H1.48411V22.6H1.25078V22.1333H0.984115V21.6667H0.784115V21.2333H0.584115V20.6667H0.0507812V22.1333H0.584115V22.8H0.0507812V23.9H0.584115V23.4333H0.917448V22.9667H1.25078V23.4333H1.58411V23.9H1.85078V24.5H1.58411V24.9667H1.25078V25.4333H0.917448V24.9667H0.584115V24.5H0.0507812V25.8667H0.584115V26.5H0.0507812V27.4333H0.584115V27H0.850781V26.4667H1.21745V26.0333H1.51745V25.5333H1.75078V25.1333H2.21745V25.5333H2.45078V26.0333H2.75078V26.4667H3.11745V27H3.38411V27.4333H3.91745V27H4.18411V26.4667H4.55078V26.0333H4.85078V25.5333H5.08412V25.1333H5.55078V25.5333H5.78411V26.0333H6.08412V26.4667H6.45078V27H6.71745V27.4333H7.25078V26.5H6.71745V25.8667H7.25078V24.5H6.71745V24.9667H6.38411V25.4333H6.05078V24.9667H5.71745V24.5H5.45078V23.9H5.71745V23.4333H6.05078V22.9667H6.38411V23.4333H6.71745V23.9H7.25078V22.8H6.71745V22.1333H7.25078V20.6667H6.71745V21.2333H6.51745V21.6667H6.31745V22.1333H6.05078V22.6H5.81745V22.9333H5.51745V23.4H5.11745V22.9333H4.81745V22.6H4.55078V22.1333H4.28411V21.6667H4.05078V21.2333H3.85078V20.8667H3.45078ZM3.51745 26.4333V25.5333H3.78411V26.4333H3.51745ZM3.38411 24.5V24.9667H3.05078V25.4333H2.71745V24.9667H2.38411V24.5H2.11745V23.9H2.38411V23.4333H2.71745V22.9667H3.05078V23.4333H3.38411V23.9H3.91745V23.4333H4.25078V22.9667H4.58412V23.4333H4.91745V23.9H5.18411V24.5H4.91745V24.9667H4.58412V25.4333H4.25078V24.9667H3.91745V24.5H3.38411ZM3.51745 22.9667V22.0667H3.78411V22.9667H3.51745Z" fill="white"/>
<path d="M0.0507812 13.5999H0.584115V14.0666H0.817448V14.3333H1.08411V14.7999H1.31745V15.1999H1.08411V15.6666H0.817448V15.9333H0.584115V16.3999H0.0507812V13.5999ZM7.25078 13.5999V16.3999H6.71745V15.9333H6.48412V15.6666H6.21745V15.1999H5.98412V14.7999H6.21745V14.3333H6.48412V14.0666H6.71745V13.5999H7.25078ZM2.38411 15.2999H2.65078V14.6999H2.38411V15.2999ZM4.91745 15.2999V14.6999H4.65078V15.2999H4.91745ZM3.51745 13.3333H3.78411V12.7333H3.51745V13.3333ZM3.51745 16.6666V17.2666H3.78411V16.6666H3.51745ZM1.85078 14.1666H2.31745V13.7999H2.65078V13.4666H2.81745V13.1333H3.01745V12.6666H3.28411V12.1999H3.41745V11.7666H3.88411V12.1999H4.01745V12.6666H4.28411V13.1333H4.48411V13.4666H4.65078V13.7999H4.98411V14.1666H5.45078V15.8333H4.98411V16.1999H4.65078V16.5333H4.48411V16.8666H4.28411V17.3333H4.01745V17.7999H3.88411V18.2333H3.41745V17.7999H3.28411V17.3333H3.01745V16.8666H2.81745V16.5333H2.65078V16.1999H2.31745V15.8333H1.85078V14.1666ZM3.51745 14.4666V13.9666H3.25078V13.6333H2.98411V14.4666H3.25078V14.7666H3.41745V15.2333H3.25078V15.5333H2.98411V16.3666H3.25078V16.0333H3.51745V15.5333H3.78411V16.0333H4.05078V16.3666H4.31745V15.5333H4.05078V15.2333H3.88411V14.7666H4.05078V14.4666H4.31745V13.6333H4.05078V13.9666H3.78411V14.4666H3.51745Z" fill="white"/>
</g>
<path d="M6.98389 20H59.9998V30H6.98389V20Z" fill="#007C30"/>
</g>
</g>
<defs>
<clipPath id="clip0_160_7563">
<rect width="50" height="30" fill="white"/>
</clipPath>
</defs>
</svg>
