<svg width="25" height="25" viewBox="0 0 25 25" fill="none" xmlns="http://www.w3.org/2000/svg">
<path d="M2.73438 12.5C2.73438 15.09 3.76325 17.5739 5.59466 19.4053C7.42607 21.2367 9.91 22.2656 12.5 22.2656C15.09 22.2656 17.5739 21.2367 19.4053 19.4053C21.2367 17.5739 22.2656 15.09 22.2656 12.5C22.2656 9.91 21.2367 7.42607 19.4053 5.59466C17.5739 3.76325 15.09 2.73438 12.5 2.73438C9.91 2.73438 7.42607 3.76325 5.59466 5.59466C3.76325 7.42607 2.73438 9.91 2.73438 12.5Z" stroke="#F8AA37" stroke-linecap="round" stroke-linejoin="round"/>
<path d="M2.73438 12.5H22.2656" stroke="#F8AA37" stroke-linecap="round" stroke-linejoin="round"/>
<path d="M12.5 2.73438C14.9427 5.40855 16.3308 8.87894 16.4062 12.5C16.3308 16.1211 14.9427 19.5915 12.5 22.2656C10.0573 19.5915 8.66919 16.1211 8.59375 12.5C8.66919 8.87894 10.0573 5.40855 12.5 2.73438Z" stroke="#F8AA37" stroke-linecap="round" stroke-linejoin="round"/>
</svg>
