<svg width="25" height="25" viewBox="0 0 25 25" fill="none" xmlns="http://www.w3.org/2000/svg">
<path d="M5.68319 19.329C5.37656 19.6285 4.88348 19.6275 4.60376 19.3027C3.91038 18.4976 3.34356 17.5885 2.90332 16.5752C2.35645 15.3165 2.08301 13.958 2.08301 12.4997C2.08301 11.0413 2.35645 9.68285 2.90332 8.42415C3.34102 7.41673 3.90383 6.51221 4.59176 5.71055C4.87558 5.37982 5.37866 5.38459 5.68319 5.69636C5.98269 6.00299 5.97668 6.49131 5.70134 6.81982C5.14551 7.48297 4.69026 8.22609 4.33561 9.04915C3.87554 10.1169 3.64551 11.267 3.64551 12.4997C3.64551 13.7323 3.87554 14.8825 4.33561 15.9502C4.6898 16.7722 5.14944 17.5195 5.71456 18.1923C5.99488 18.526 5.99497 19.0245 5.68319 19.329ZM8.6259 16.3863C8.31927 16.6858 7.82413 16.6856 7.56156 16.3469C7.23831 15.9298 6.96594 15.4677 6.74447 14.9606C6.41462 14.2054 6.24967 13.3851 6.24967 12.4997C6.24967 11.6143 6.41462 10.7939 6.74447 10.0387C6.96337 9.53754 7.23198 9.08031 7.5503 8.66705C7.81625 8.32178 8.32137 8.32729 8.6259 8.63907C8.9254 8.9457 8.91591 9.43306 8.66836 9.78298C8.47712 10.0533 8.31326 10.3469 8.17676 10.6637C7.93368 11.228 7.81217 11.8399 7.81217 12.4997C7.81217 13.1594 7.93368 13.7714 8.17676 14.3356C8.31416 14.6545 8.48206 14.9527 8.68047 15.23C8.93404 15.5845 8.93768 16.0818 8.6259 16.3863ZM12.4997 14.583C11.9268 14.583 11.4363 14.379 11.0283 13.971C10.6204 13.5631 10.4163 13.0726 10.4163 12.4997C10.4163 11.9268 10.6204 11.4363 11.0283 11.0283C11.4363 10.6203 11.9268 10.4163 12.4997 10.4163C13.0726 10.4163 13.5631 10.6203 13.971 11.0283C14.379 11.4363 14.583 11.9268 14.583 12.4997C14.583 13.0726 14.379 13.5631 13.971 13.971C13.5631 14.379 13.0726 14.583 12.4997 14.583ZM17.4461 16.3217C17.1821 16.6701 16.6747 16.6687 16.3692 16.356C16.0721 16.0517 16.0814 15.5681 16.3275 15.2213C16.5202 14.9496 16.6853 14.6544 16.8226 14.3356C17.0657 13.7714 17.1872 13.1594 17.1872 12.4997C17.1872 11.8399 17.0657 11.228 16.8226 10.6637C16.6852 10.3448 16.5173 10.0467 16.3189 9.76932C16.0653 9.41486 16.0617 8.91755 16.3734 8.61303C16.6801 8.31353 17.1752 8.31369 17.4378 8.65248C17.761 9.06956 18.0334 9.53164 18.2549 10.0387C18.5847 10.7939 18.7497 11.6143 18.7497 12.4997C18.7497 13.3677 18.5847 14.1794 18.2549 14.9346C18.0353 15.4373 17.7657 15.8997 17.4461 16.3217ZM20.4055 19.2819C20.1233 19.6151 19.6187 19.6127 19.3137 19.3004C19.0155 18.9952 19.0215 18.5091 19.2957 18.1823C19.8526 17.5184 20.3086 16.7744 20.6637 15.9502C21.1238 14.8825 21.3538 13.7323 21.3538 12.4997C21.3538 11.267 21.1238 10.1169 20.6637 9.04915C20.3091 8.22605 19.8487 7.47777 19.2825 6.80427C19.0033 6.47218 19.0032 5.97597 19.3136 5.67283C19.6208 5.37274 20.1154 5.3761 20.3936 5.70336C21.0879 6.52032 21.6554 7.43593 22.096 8.45019C22.6429 9.70889 22.9163 11.0587 22.9163 12.4997C22.9163 13.9407 22.6429 15.2904 22.096 16.5491C21.6579 17.5576 21.0944 18.4685 20.4055 19.2819Z" fill="#F8AA37"/>
</svg>
